Coordinates
version=1
nRows=17
nColumns=24
inDegrees=yes

Units are S.I. units (second, meters, Newtons, ...)
Angles are in degrees.

endheader
time	pelvis_tilt	pelvis_list	pelvis_rotation	pelvis_tx	pelvis_ty	pelvis_tz	hip_flexion_r	hip_adduction_r	hip_rotation_r	knee_angle_r	ankle_angle_r	subtalar_angle_r	mtp_angle_r	hip_flexion_l	hip_adduction_l	hip_rotation_l	knee_angle_l	ankle_angle_l	subtalar_angle_l	mtp_angle_l	lumbar_extension	lumbar_bending	lumbar_rotation
      3.51500000	     10.89202898	     12.18878958	     -4.67395337	     -0.27993384	      0.99932319	      0.03179250	     19.73456475	    -13.60894423	     -2.21674018	    -36.10193666	      6.68414108	     -4.66094246	     14.45272137	     -8.31315882	     16.19942304	    -12.59638571	    -12.46500721	     10.87659542	      5.32814366	     18.49719345	    -26.79965247	    -14.12510517	     -3.52173703
      3.52000000	     10.99804289	     12.21792037	     -4.56586045	     -0.27487353	      0.99911626	      0.03179883	     19.33123277	    -13.66953463	     -2.70731154	    -34.00820259	      6.26683131	     -4.13986604	     14.14692261	     -8.86977297	     16.23510251	    -12.42971906	    -12.31127831	     11.11112521	      5.52023343	     18.34211756	    -26.92826207	    -14.12420894	     -3.61065841
      3.52500000	     11.03955121	     12.29883661	     -4.41814764	     -0.26986883	      0.99873568	      0.03177130	     18.99531379	    -13.78594608	     -3.22559984	    -31.91699165	      5.81806986	     -3.54829214	     13.94410931	     -9.32183817	     16.30494730	    -12.23266750	    -12.22943097	     11.41759262	      5.74916205	     18.25892322	    -27.00429546	    -14.16320958	     -3.73762852
      3.53000000	     11.13059781	     12.36819373	     -4.29541487	     -0.26475758	      0.99840255	      0.03178673	     18.56210427	    -13.88577208	     -3.77693998	    -29.76959473	      5.34077472	     -2.94856492	     13.72699754	     -9.86065575	     16.37030626	    -12.08395702	    -12.08742431	     11.64729114	      5.94578994	     18.11456958	    -27.11951240	    -14.19820471	     -3.83374082
      3.53500000	     11.17541530	     12.45385608	     -4.16228212	     -0.25963431	      0.99795809	      0.03182452	     18.16286232	    -13.98655619	     -4.31492095	    -27.61160176	      4.84359156	     -2.29353277	     13.53545889	    -10.34283606	     16.44229380	    -11.91585300	    -11.96373952	     11.91115638	      6.15880317	     17.96045158	    -27.18643139	    -14.24857505	     -3.94499563
      3.54000000	     11.23536555	     12.55517507	     -4.03601020	     -0.25452089	      0.99746247	      0.03190391	     17.73511231	    -14.09163449	     -4.83566462	    -25.44682028	      4.33757739	     -1.58212594	     13.36943992	    -10.83135532	     16.52510515	    -11.74199203	    -11.85822622	     12.17037044	      6.37337087	     17.77957748	    -27.27332084	    -14.31919891	     -4.04850806
      3.54500000	     11.26337221	     12.68366664	     -3.90400083	     -0.24937779	      0.99686430	      0.03198902	     17.34174001	    -14.21878497	     -5.37812694	    -23.30738525	      3.81562652	     -0.82063331	     13.24321258	    -11.28548046	     16.63030352	    -11.57711232	    -11.75729449	     12.46380347	      6.59546064	     17.61670114	    -27.32563133	    -14.41622878	     -4.16036236
      3.55000000	     11.26775226	     12.81729231	     -3.77230894	     -0.24419469	      0.99620189	      0.03210955	     16.96013423	    -14.33538650	     -5.90462774	    -21.17786743	      3.28706195	     -0.01681562	     13.14369981	    -11.71391452	     16.73449348	    -11.41297988	    -11.66102143	     12.73542831	      6.80675472	     17.44363780	    -27.34820328	    -14.52127972	     -4.26138962
      3.55500000	     11.29310319	     12.94577147	     -3.65889198	     -0.23895267	      0.99552237	      0.03227623	     16.54955364	    -14.43362612	     -6.41901427	    -19.07609350	      2.75660836	      0.80661165	     13.05346937	    -12.18699044	     16.83741571	    -11.25196255	    -11.52482344	     12.99796550	      7.00157797	     17.19823142	    -27.38729412	    -14.62716303	     -4.35916733
      3.56000000	     11.25029424	     13.11702239	     -3.53105143	     -0.23375095	      0.99465324	      0.03244656	     16.25015682	    -14.56842713	     -6.92062033	    -17.07765847	      2.25876997	      1.70677395	     13.00013415	    -12.55278734	     16.97038029	    -11.09683926	    -11.45467311	     13.33160470	      7.22942858	     17.05862006	    -27.36111336	    -14.77588535	     -4.45306698
      3.56500000	     11.26412221	     13.28824073	     -3.41499882	     -0.22851172	      0.99385955	      0.03266365	     15.87900186	    -14.69527383	     -7.41184854	    -15.11923978	      1.75955709	      2.58071254	     12.94366261	    -12.99045511	     17.10365396	    -10.93088185	    -11.36651176	     13.57104396	      7.40994040	     16.82913865	    -27.39570564	    -14.92746656	     -4.54603670
      3.57000000	     11.22816475	     13.46439313	     -3.30107548	     -0.22323531	      0.99294730	      0.03290037	     15.59144132	    -14.81660321	     -7.87846194	    -13.28098701	      1.30676937	      3.49024561	     12.89494826	    -13.37372802	     17.23844077	    -10.77092766	    -11.28380179	     13.85869773	      7.60251465	     16.62360767	    -27.36994033	    -15.08723330	     -4.62530815
      3.57500000	     11.18618289	     13.64353025	     -3.19169182	     -0.21794911	      0.99198438	      0.03315807	     15.33912243	    -14.93465154	     -8.32176176	    -11.56795475	      0.89742301	      4.38414515	     12.84091675	    -13.75020035	     17.37492130	    -10.60329220	    -11.20292536	     14.14453808	      7.77104487	     16.40429574	    -27.33911348	    -15.25166249	     -4.70041749
      3.58000000	     11.16054864	     13.79922394	     -3.08612108	     -0.21261550	      0.99103931	      0.03344036	     15.08274047	    -15.02387845	     -8.74972032	     -9.97602319	      0.53215862	      5.24146610	     12.75009518	    -14.15885093	     17.48714495	    -10.42629739	    -11.10053323	     14.41018623	      7.91614280	     16.08673783	    -27.32102204	    -15.39194307	     -4.78009681
      3.58500000	     11.03751079	     13.96949094	     -2.97967461	     -0.20734146	      0.98991278	      0.03373984	     15.00399362	    -15.11963544	     -9.11918702	     -8.58762812	      0.23844704	      6.09286237	     12.69460844	    -14.41534103	     17.60458357	    -10.29099750	    -11.07988884	     14.70477229	      8.08055132	     15.97062284	    -27.20228492	    -15.55269769	     -4.79336164
      3.59000000	     11.05078823	     14.13829662	     -2.86435106	     -0.20202767	      0.98899071	      0.03402090	     14.78335425	    -15.23352108	     -9.55580181	     -7.33719725	      0.01940532	      6.87195965	     12.57039440	    -14.85682343	     17.72348293	    -10.05069013	    -11.00358258	     14.98954965	      8.18079253	     15.67972648	    -27.24124153	    -15.69740703	     -4.88224625
      3.59500000	     11.02524748	     14.26164419	     -2.75530089	     -0.19666295	      0.98803513	      0.03431709	     14.63898201	    -15.29428235	     -9.95667383	     -6.26149711	     -0.14900670	      7.58495810	     12.38245396	    -15.26087521	     17.79536952	     -9.84381370	    -10.91982218	     15.25891140	      8.28142054	     15.31479497	    -27.22672441	    -15.79694409	     -4.95080746
